<svg aria-hidden="true" style="position:absolute;width:0;height:0;overflow:hidden" xmlns="http://www.w3.org/2000/svg"><defs><symbol id="icon-web-systems_logo" viewBox="0 0 32 32"><path fill="#949597" style="fill:var(--color1, #949597)" d="M14.659 10.845a3.85 3.85 0 1 1-7.7-.001 3.85 3.85 0 0 1 7.7.001zM25.05 10.845a3.849 3.849 0 1 1-7.698 0 3.849 3.849 0 0 1 7.698 0zM14.659 21.154a3.85 3.85 0 1 1-7.7-.001 3.85 3.85 0 0 1 7.7.001zM25.05 21.154a3.849 3.849 0 1 1-7.698 0 3.849 3.849 0 0 1 7.698 0z"/><path fill="#949597" style="fill:var(--color1, #949597)" d="M31.699 16c0-8.654-7.04-15.694-15.694-15.694S.311 7.346.311 16c0 8.51 6.807 15.459 15.262 15.688l.431.006c8.654 0 15.694-7.04 15.694-15.694zM1.71 16c0-7.741 6.19-14.065 13.882-14.284l.413-.006C23.887 1.71 30.3 8.121 30.3 16s-6.413 14.29-14.295 14.29S1.71 23.879 1.71 16z"/></symbol><symbol id="icon-play" viewBox="0 0 28 32"><path fill="#fff" style="fill:var(--color2, #fff)" opacity=".4" d="M28.235 16 0 31.079V.921L28.235 16z"/></symbol><symbol id="icon-facebook" viewBox="0 0 16 32"><path d="M10 11V7a2 2 0 0 1 2-2h2V0h-4a6 6 0 0 0-6 6v5H0v5h4v16h6V16h4l2-5h-6z"/></symbol><symbol id="icon-instagram" viewBox="0 0 32 32"><path d="M10 0h12c5.522 0 10 4.478 10 10v12c0 5.522-4.478 10-10 10H10C4.478 32 0 27.522 0 22V10C0 4.478 4.478 0 10 0zm12 29c3.86 0 7-3.14 7-7V10c0-3.86-3.14-7-7-7H10c-3.86 0-7 3.14-7 7v12c0 3.86 3.14 7 7 7h12z"/><path d="M8 16a8 8 0 1 1 16 0 8 8 0 0 1-16 0zm3 0c0 2.756 2.244 5 5 5s5-2.244 5-5c0-2.758-2.244-5-5-5s-5 2.242-5 5zM25.666 7.4a1.066 1.066 0 1 1-2.131 0 1.066 1.066 0 0 1 2.131 0z"/></symbol><symbol id="icon-logo" viewBox="0 0 183 32"><path d="M14.127 25.939 24.273.593c.066-.188.16-.329.292-.433s.282-.16.471-.16h2.344c.273 0 .461.056.574.169s.169.264.169.471c0 .085-.019.188-.066.339L23.21 12.64c.922 2.231 1.835 4.452 2.739 6.654.643 1.551 1.286 3.107 1.932 4.67l.816 1.974c1.576-3.891 3.159-7.758 4.736-11.608l.384-.938A2850.05 2850.05 0 0 0 38.946.827c.113-.254.254-.461.424-.602.169-.151.405-.226.715-.226h1.779c.301 0 .527.056.678.169.16.113.235.264.235.471a.677.677 0 0 1-.014.113l-.005.028a.659.659 0 0 0-.015.049.32.32 0 0 1-.032.083l-12.32 29.6a.353.353 0 0 1-.085.169l-.066.132c-.047.085-.094.169-.169.263s-.169.179-.292.254a.897.897 0 0 1-.452.113h-1.29c-.367 0-.621-.094-.772-.282s-.235-.367-.263-.518l-5.675-13.572-5.61 13.44c-.075.339-.226.584-.47.725s-.471.207-.696.207h-1.148c-.169 0-.311-.028-.424-.094s-.207-.132-.292-.216a1.695 1.695 0 0 1-.207-.273 2.538 2.538 0 0 1-.113-.235L.066.978A.336.336 0 0 0 .028.837.712.712 0 0 1 0 .639c0-.433.264-.64.781-.64h2.061c.48 0 .838.32 1.092.951l10.193 24.988zM51.294 0H71.67c.63 0 .951.329.951.998v1.713c0 .254-.085.48-.254.678s-.414.301-.744.301H54.032v9.355h13.995c.254 0 .471.075.659.235.179.151.273.395.273.744v1.732c0 .254-.075.48-.235.678s-.386.292-.696.292H54.033v11.04h17.788c.631 0 .951.329.951.998v1.75c0 .621-.311.932-.932.932H51.294c-.621 0-.932-.292-.932-.885V.98c0-.659.31-.979.932-.979zm64.48 24.565 2.457 6.08c.094.235.245.433.433.584.187.141.423.216.705.216h1.826c.282 0 .509-.056.687-.169.179-.113.264-.282.264-.508a.948.948 0 0 0-.075-.311l-.04-.11-.001-.002-.001-.002v-.001a.497.497 0 0 1-.033-.102L109.798.781a3.05 3.05 0 0 0-.301-.508c-.141-.179-.376-.273-.734-.273h-1.252c-.377 0-.64.094-.772.273a2.334 2.334 0 0 0-.282.508l-.019.066-.028.069c-.029.07-.076.183-.141.345-.052.117-.115.266-.193.446v.001l-.001.002c-.078.181-.169.395-.277.643-.214.484-.501 1.188-.872 2.095l-.013.031-1.468 3.501c-.593 1.412-1.318 3.153-2.174 5.223l-.153.367c-.832 1.989-1.797 4.296-2.887 6.937-1.167 2.805-2.513 6.042-4.038 9.713a.464.464 0 0 0-.066.151 2.016 2.016 0 0 0-.038.395c0 .452.301.678.913.678h1.816c.555 0 .941-.282 1.167-.847l2.391-6.033h15.397zm-7.642-19.097 6.155 15.501h-12.386l6.231-15.501zm39.228 8.951a6.29 6.29 0 0 1-1.976 1.384 6.033 6.033 0 0 1-2.475.508h-9.573V3.624h9.506c.894 0 1.722.169 2.504.518.771.348 1.44.809 2.005 1.393.565.593 1.007 1.261 1.336 2.024s.489 1.572.489 2.419a6.05 6.05 0 0 1-.489 2.419 6.45 6.45 0 0 1-1.327 2.024zm-17.685 16.094c0 .621.301.932.931.932h1.798c.622 0 .931-.311.931-.932V19.925h9.082c.283 0 .509 0 .678-.009.17-.009.33-.019.49-.047l5.12 10.776c.112.254.254.452.414.593s.386.207.669.207h2.136c.245 0 .433-.047.565-.16a.475.475 0 0 0 .198-.386c0-.085-.029-.216-.103-.386l-5.573-11.473c.866-.395 1.647-.904 2.353-1.515s1.309-1.318 1.826-2.099a10.37 10.37 0 0 0 1.185-2.55 9.748 9.748 0 0 0 .424-2.88 9.772 9.772 0 0 0-.782-3.878 9.789 9.789 0 0 0-2.117-3.181 9.953 9.953 0 0 0-3.153-2.155c-1.205-.518-2.504-.781-3.906-.781h-12.235c-.291 0-.509.085-.678.264-.178.179-.254.424-.254.753v29.496zM181.816.235a1.042 1.042 0 0 0-.678-.235h-21.787c-.293 0-.518.085-.697.254a.922.922 0 0 0-.263.678v1.732c0 .358.094.612.263.781.179.16.405.245.697.245h9.082v26.805c0 .282.085.508.273.687a.956.956 0 0 0 .696.264h1.722c.32 0 .565-.085.725-.273s.245-.405.245-.678V3.69h9.045c.32 0 .575-.104.753-.301a1.07 1.07 0 0 0 .264-.725V.932c-.029-.311-.142-.546-.339-.696z"/></symbol><symbol id="icon-pause" viewBox="0 0 30 32"><path fill="#fff" style="fill:var(--color2, #fff)" opacity=".4" d="M0 0h12v32H0V0zM18 0h12v32H18V0z"/></symbol><symbol id="icon-pinterest" viewBox="0 0 28 32"><path d="M13.434 0C4.664 0 0 5.62 0 11.748c0 2.842 1.588 6.386 4.13 7.51.386.174.596.1.682-.258.076-.272.41-1.582.572-2.2a.566.566 0 0 0-.136-.556c-.844-.976-1.514-2.754-1.514-4.422 0-4.274 3.398-8.424 9.18-8.424 5 0 8.498 3.248 8.498 7.894 0 5.25-2.778 8.882-6.388 8.882-1.998 0-3.486-1.568-3.014-3.508.57-2.31 1.688-4.794 1.688-6.46 0-1.494-.844-2.73-2.568-2.73-2.034 0-3.684 2.014-3.684 4.718 0 1.718.608 2.878.608 2.878S6.042 23.2 5.668 24.718c-.632 2.57.086 6.732.148 7.09.038.198.26.26.384.098.198-.26 2.63-3.73 3.312-6.238.248-.914 1.266-4.62 1.266-4.62.67 1.21 2.604 2.224 4.664 2.224 6.128 0 10.556-5.386 10.556-12.07C25.976 4.794 20.492 0 13.434 0z"/></symbol></defs></svg>